<svg width="373" height="113" viewBox="0 0 373 113" fill="none" xmlns="http://www.w3.org/2000/svg">
<path fill-rule="evenodd" clip-rule="evenodd" d="M69.4308 42.0798C71.4714 42.6698 82.0367 45.1933 86.0349 42.1603L86.034 42.1644L99.54 58.4511C99.5725 58.4902 99.6057 58.5273 99.6431 58.5617C99.9652 58.8574 101.686 60.2791 103.964 59.21C106.313 58.1077 106.142 55.5887 106.105 55.2303C106.102 55.2007 106.1 55.1727 106.098 55.143L105.157 33.8171C105.122 33.0135 104.907 32.2281 104.528 31.5185L97.5991 18.5407C93.7807 19.4261 91.7174 21.4006 90.4467 22.6688C90.7227 19.0727 89.3545 10.8664 81.6684 5.98732L77.0303 15.6851C77.0303 15.6851 75.9038 9.84021 73.622 6.30902C70.641 1.69575 62.7789 0 62.7789 0L61.767 10.4567C61.767 10.4567 58.7797 4.82668 55.4336 2.94691C51.3712 0.664774 43.0461 1.34926 43.0461 1.34926L45.0699 10.8784C45.0699 10.8784 41.4159 8.03231 38.0168 6.74995C32.7623 4.76764 25.0841 9.19179 25.0841 9.19179L30.1438 17.0343C30.1438 17.0343 25.0016 15.999 21.4135 16.1107C15.8796 16.2831 10.8327 22.7687 10.8327 22.7687L18.0006 28.3343C18.0006 28.3343 12.6371 28.6048 9.39912 29.9949C4.45204 32.1187 2.14689 40.309 2.14689 40.309L11.423 43.0075C11.423 43.0075 6.04175 44.8189 3.2994 47.5119C-0.598674 51.3397 0.038708 60.1261 0.038708 60.1261L9.39912 59.7045C9.39912 59.7045 5.33064 61.9839 3.59801 65.1284C0.89372 70.0362 4.42374 79.5216 4.42374 79.5216L13.3625 75.4739C13.3625 75.4739 10.1337 79.2945 9.66922 82.9937C8.99227 88.3846 15.3864 95.544 15.3864 95.544L22.3857 89.0507C22.3857 89.0507 20.7188 92.8367 21.5628 96.5793C22.792 102.029 31.3245 107.856 31.3245 107.856L35.5409 98.6642C35.5409 98.6642 35.4 102.972 37.2385 106.084C40.0595 110.86 49.8767 113 49.8767 113L51.5633 103.387C51.5633 103.387 53.2331 107.183 55.9498 109.468C60.2345 113.072 69.8625 111.566 69.8625 111.566L67.8387 102.628C67.8387 102.628 70.8245 105.299 74.1635 106.482C79.4548 108.357 88.0775 104.061 88.0775 104.061L82.5961 95.7127C82.5961 95.7127 86.9939 97.3549 90.7847 97.1267C96.1902 96.8012 102.076 90.2313 102.076 90.2313L95.8448 85.1514C95.8448 85.1514 99.1946 85.6294 102.076 83.8396C105.827 81.5098 107.024 78.4715 107.258 77.7736C107.291 77.6758 107.304 77.5741 107.304 77.4709C107.304 75.6719 104.718 74.6765 103.326 75.8158C89.4953 87.133 54.1225 97.9081 42.4558 74.9679C39.2896 68.7421 40.6343 53.9533 55.9484 51.1873C61.1147 50.2542 72.3168 52.7586 75.806 60.0556C75.8352 60.1168 75.8656 60.1749 75.9017 60.2323C76.3697 60.9751 79.8554 66.1956 80.9026 58.6567C81.7325 52.6825 73.9531 46.1642 70.6607 43.4055C69.4962 42.4298 68.893 41.9244 69.4308 42.0798ZM94.3652 37.8259C96.2443 37.8259 97.7676 36.3026 97.7676 34.4235C97.7676 32.5444 96.2443 31.0211 94.3652 31.0211C92.4861 31.0211 90.9628 32.5444 90.9628 34.4235C90.9628 36.3026 92.4861 37.8259 94.3652 37.8259Z" fill="#184395"/>
<path d="M138.294 96.7936V83.4215H148.851V29.4053H138.294V16.0333H171.548C182.457 16.0333 190.726 18.8484 196.357 24.3028C201.987 29.7572 204.802 38.0268 204.802 48.9356V64.2431C204.802 75.1519 201.987 83.2455 196.357 88.8759C190.726 94.3303 182.457 97.1455 171.548 97.1455H138.294V96.7936ZM164.158 83.0696H171.724C177.882 83.0696 182.457 81.4861 185.272 78.143C188.087 74.976 189.495 70.4013 189.495 64.595V48.4078C189.495 42.4255 188.087 37.8509 185.272 34.6838C182.457 31.5167 177.882 29.9332 171.724 29.9332H164.158V83.0696Z" fill="#184395"/>
<path d="M217.472 96.7918V15.8555H232.779V96.7918H217.472Z" fill="#184395"/>
<path d="M263.039 96.7918L242.453 15.8555H258.113L275.18 86.9387H276.763L293.83 15.8555H309.49L288.904 96.7918H263.039Z" fill="#184395"/>
<path d="M319.344 96.7918V15.8555H371.249V29.7555H334.652V49.1098H368.082V63.0097H334.652V83.0678H372.129V96.9677H319.344V96.7918Z" fill="#184395"/>
</svg>
