<svg width="41" height="41" viewBox="0 0 41 41" fill="none" xmlns="http://www.w3.org/2000/svg">
<path d="M24.9116 20.397L11.6407 18.0449V35.4246C11.6407 36.2183 12.2814 36.8617 13.0716 36.8617H35.9709C36.7612 36.8617 37.4018 36.2183 37.4018 35.4246V29.0214L24.9116 20.397Z" fill="#185C37"/>
<path d="M24.9116 5.5H13.0716C12.2814 5.5 11.6407 6.14342 11.6407 6.93713V13.3403L24.9116 21.1807L31.9373 23.5328L37.4018 21.1807V13.3403L24.9116 5.5Z" fill="#21A366"/>
<path d="M11.6407 13.3403H24.9116V21.1807H11.6407V13.3403Z" fill="#107C41"/>
<path opacity="0.1" d="M21.1388 11.7725H11.6407V31.3733H21.1388C21.928 31.3707 22.5671 30.7288 22.5697 29.9362V13.2096C22.5671 12.417 21.928 11.775 21.1388 11.7725Z" fill="black"/>
<path opacity="0.2" d="M20.3581 12.5566H11.6407V32.1575H20.3581C21.1473 32.1549 21.7865 31.513 21.789 30.7203V13.9938C21.7865 13.2011 21.1473 12.5592 20.3581 12.5566Z" fill="black"/>
<path opacity="0.2" d="M20.3581 12.5566H11.6407V30.5894H20.3581C21.1473 30.5868 21.7865 29.9449 21.789 29.1523V13.9938C21.7865 13.2011 21.1473 12.5592 20.3581 12.5566Z" fill="black"/>
<path opacity="0.2" d="M19.5775 12.5566H11.6407V30.5894H19.5775C20.3667 30.5868 21.0058 29.9449 21.0084 29.1523V13.9938C21.0058 13.2011 20.3667 12.5592 19.5775 12.5566Z" fill="black"/>
<path d="M5.26425 12.5566H19.5765C20.3668 12.5566 21.0074 13.2001 21.0074 13.9938V28.3682C21.0074 29.1619 20.3668 29.8054 19.5765 29.8054H5.26425C4.47398 29.8054 3.83334 29.1619 3.83334 28.3682V13.9938C3.83334 13.2001 4.47398 12.5566 5.26425 12.5566Z" fill="url(#paint0_linear_1330_17406)"/>
<path d="M8.26425 25.8521L11.2744 21.1675L8.5164 16.5088H10.735L12.24 19.4881C12.379 19.7712 12.4742 19.9813 12.5258 20.12H12.5453C12.6426 19.8976 12.7467 19.6782 12.8575 19.4622L14.4664 16.5104H16.5031L13.6748 21.1417L16.5749 25.8521H14.4079L12.6694 22.5819C12.5875 22.4428 12.518 22.2967 12.4617 22.1452H12.436C12.3851 22.2936 12.3175 22.4356 12.2346 22.5686L10.4446 25.8521H8.26425Z" fill="white"/>
<path d="M35.9691 5.5H24.9098V13.3403H37.4V6.93713C37.4 6.14342 36.7594 5.5 35.9691 5.5Z" fill="#33C481"/>
<path d="M24.9098 21.1807H37.4V29.021H24.9098V21.1807Z" fill="#107C41"/>
<defs>
<linearGradient id="paint0_linear_1330_17406" x1="6.81683" y1="11.4337" x2="18.097" y2="30.8859" gradientUnits="userSpaceOnUse">
<stop stop-color="#18884F"/>
<stop offset="0.5" stop-color="#117E43"/>
<stop offset="1" stop-color="#0B6631"/>
</linearGradient>
</defs>
</svg>
