<svg width="121" height="73" viewBox="0 0 121 73" fill="none" xmlns="http://www.w3.org/2000/svg">
<circle cx="36.1224" cy="36.1224" r="35.1224" transform="matrix(-1 0 0 1 120.5 0.5)" fill="#BFC4D6" stroke="white" stroke-width="2"/>
<path d="M1.50021 36.6224C1.50021 56.02 17.2251 71.7449 36.6227 71.7449C56.0203 71.7449 71.7451 56.02 71.7451 36.6224C71.7451 17.2249 56.0203 1.5 36.6227 1.5C17.2251 1.5 1.50021 17.2249 1.50021 36.6224Z" fill="#BFC4D6" stroke="white" stroke-width="2"/>
<mask id="path-3-inside-1_1631_17012" fill="white">
<path fill-rule="evenodd" clip-rule="evenodd" d="M60.5002 63.7283C52.9918 57.109 48.2553 47.4188 48.2553 36.6224C48.2553 25.826 52.9918 16.1359 60.5002 9.5166C68.0086 16.1359 72.7451 25.826 72.7451 36.6224C72.7451 47.4188 68.0086 57.109 60.5002 63.7283Z"/>
</mask>
<path fill-rule="evenodd" clip-rule="evenodd" d="M60.5002 63.7283C52.9918 57.109 48.2553 47.4188 48.2553 36.6224C48.2553 25.826 52.9918 16.1359 60.5002 9.5166C68.0086 16.1359 72.7451 25.826 72.7451 36.6224C72.7451 47.4188 68.0086 57.109 60.5002 63.7283Z" fill="#344054"/>
<path d="M60.5002 63.7283L61.8228 65.2285L60.5002 66.3945L59.1776 65.2285L60.5002 63.7283ZM60.5002 9.5166L59.1776 8.01635L60.5002 6.85038L61.8228 8.01635L60.5002 9.5166ZM50.2553 36.6224C50.2553 46.8208 54.7268 55.9723 61.8228 62.228L59.1776 65.2285C51.2568 58.2457 46.2553 48.0169 46.2553 36.6224H50.2553ZM61.8228 11.0169C54.7268 17.2726 50.2553 26.4241 50.2553 36.6224H46.2553C46.2553 25.228 51.2568 14.9992 59.1776 8.01635L61.8228 11.0169ZM70.7451 36.6224C70.7451 26.4241 66.2736 17.2726 59.1776 11.0169L61.8228 8.01635C69.7436 14.9992 74.7451 25.228 74.7451 36.6224H70.7451ZM59.1776 62.228C66.2736 55.9723 70.7451 46.8208 70.7451 36.6224H74.7451C74.7451 48.0169 69.7436 58.2457 61.8228 65.2285L59.1776 62.228Z" fill="white" mask="url(#path-3-inside-1_1631_17012)"/>
</svg>
