<svg width="41" height="41" viewBox="0 0 41 41" fill="none" xmlns="http://www.w3.org/2000/svg">
<path d="M21.8717 25.7031C21.01 25.7031 20.5117 26.5215 20.5117 27.6131C20.5117 28.7148 21.03 29.4898 21.8783 29.4898C22.74 29.4898 23.2317 28.6731 23.2317 27.5798C23.2317 26.5731 22.7467 25.7031 21.8717 25.7031Z" fill="#4D598C"/>
<path d="M23.8334 3.8335H10.5C9.61597 3.8335 8.76812 4.18469 8.143 4.80981C7.51788 5.43493 7.16669 6.28277 7.16669 7.16683V33.8335C7.16669 34.7176 7.51788 35.5654 8.143 36.1905C8.76812 36.8156 9.61597 37.1668 10.5 37.1668H30.5C31.3841 37.1668 32.2319 36.8156 32.857 36.1905C33.4822 35.5654 33.8334 34.7176 33.8334 33.8335V13.8335L23.8334 3.8335ZM13.87 28.3402C13.87 29.9418 13.1017 30.5002 11.87 30.5002C11.5767 30.5002 11.1934 30.4518 10.9417 30.3668L11.085 29.3418C11.2584 29.4002 11.4834 29.4418 11.7367 29.4418C12.2684 29.4418 12.6034 29.2002 12.6034 28.3252V24.7885H13.8717V28.3402H13.87ZM16.3017 30.4918C15.66 30.4918 15.025 30.3252 14.71 30.1502L14.9684 29.0985C15.3084 29.2735 15.8367 29.4502 16.3784 29.4502C16.9617 29.4502 17.2684 29.2068 17.2684 28.8418C17.2684 28.4902 17.0034 28.2902 16.3284 28.0485C15.3917 27.7235 14.7834 27.2052 14.7834 26.3885C14.7834 25.4285 15.585 24.6935 16.9117 24.6935C17.545 24.6935 18.01 24.8268 18.3467 24.9785L18.06 26.0035C17.835 25.8952 17.435 25.7368 16.885 25.7368C16.335 25.7368 16.0667 25.9868 16.0667 26.2785C16.0667 26.6368 16.3834 26.7968 17.1117 27.0718C18.105 27.4385 18.5717 27.9552 18.5717 28.7485C18.5734 29.6918 17.845 30.4918 16.3017 30.4918ZM21.8117 30.5002C20.1434 30.5002 19.1684 29.2418 19.1684 27.6402C19.1684 25.9535 20.245 24.6935 21.905 24.6935C23.63 24.6935 24.5734 25.9868 24.5734 27.5385C24.5717 29.3835 23.455 30.5002 21.8117 30.5002ZM30.0567 30.4085H28.72L27.5184 28.2385C27.1589 27.5949 26.8334 26.9329 26.5434 26.2552L26.5167 26.2635C26.5517 27.0052 26.5684 27.7985 26.5684 28.7168V30.4102H25.4V24.7885H26.885L28.0534 26.8485C28.3867 27.4385 28.72 28.1402 28.9734 28.7735H28.9967C28.9134 28.0318 28.8884 27.2735 28.8884 26.4302V24.7885H30.0584V30.4085H30.0567ZM23.8334 15.5002H22.1667V7.16683L30.5 15.5002H23.8334Z" fill="#4D598C"/>
</svg>
