<svg width="41" height="41" viewBox="0 0 41 41" fill="none" xmlns="http://www.w3.org/2000/svg">
<path d="M23.8333 3.8335H10.5C9.61593 3.8335 8.76809 4.18469 8.14297 4.80981C7.51785 5.43493 7.16666 6.28277 7.16666 7.16683V33.8335C7.16666 34.7176 7.51785 35.5654 8.14297 36.1905C8.76809 36.8156 9.61593 37.1668 10.5 37.1668H30.5C31.384 37.1668 32.2319 36.8156 32.857 36.1905C33.4821 35.5654 33.8333 34.7176 33.8333 33.8335V13.8335L23.8333 3.8335ZM23.8333 15.5002H22.1667V7.16683L30.5 15.5002H23.8333Z" fill="#4D598C"/>
<path d="M12.1667 28.827H16.0567V27.827H13.3567V22.287H12.1667V28.827Z" fill="white"/>
<path d="M19.4237 28.947C21.1337 28.947 22.3137 27.647 22.3137 25.527C22.3137 23.417 21.1337 22.167 19.4237 22.167C17.7137 22.167 16.5337 23.417 16.5337 25.527C16.5337 27.647 17.7137 28.947 19.4237 28.947ZM19.4237 27.917C18.4037 27.917 17.7537 26.987 17.7537 25.527C17.7537 24.077 18.4037 23.207 19.4237 23.207C20.4337 23.207 21.0937 24.077 21.0937 25.527C21.0937 26.987 20.4337 27.917 19.4237 27.917Z" fill="white"/>
<path d="M26.3717 28.947C27.2617 28.947 28.0217 28.607 28.4617 28.167V25.277H26.1817V26.247H27.3917V27.637C27.1917 27.817 26.8417 27.917 26.4917 27.917C25.1817 27.917 24.5017 27.017 24.5017 25.547C24.5017 24.087 25.2717 23.207 26.4217 23.207C27.0217 23.207 27.4017 23.407 27.7317 23.727L28.3617 22.997C27.9517 22.567 27.3117 22.167 26.3817 22.167C24.6417 22.167 23.2817 23.437 23.2817 25.577C23.2817 27.747 24.6017 28.947 26.3717 28.947Z" fill="white"/>
</svg>
