<svg width="41" height="41" viewBox="0 0 41 41" fill="none" xmlns="http://www.w3.org/2000/svg">
<path d="M29.6667 3.8335H13C11.8949 3.8335 10.8351 4.27248 10.0537 5.05388C9.27233 5.83529 8.83334 6.89509 8.83334 8.00016V33.0002C8.83334 34.1052 9.27233 35.165 10.0537 35.9464C10.8351 36.7278 11.8949 37.1668 13 37.1668H29.6667C30.7717 37.1668 31.8316 36.7278 32.613 35.9464C33.3944 35.165 33.8333 34.1052 33.8333 33.0002V8.00016C33.8333 6.89509 33.3944 5.83529 32.613 5.05388C31.8316 4.27248 30.7717 3.8335 29.6667 3.8335V3.8335ZM25.5 27.7918V15.2918C25.5 15.0156 25.6098 14.7506 25.8051 14.5553C26.0005 14.3599 26.2654 14.2502 26.5417 14.2502H28.625C28.9013 14.2502 29.1662 14.3599 29.3616 14.5553C29.5569 14.7506 29.6667 15.0156 29.6667 15.2918V27.7918C29.6667 28.0681 29.5569 28.3331 29.3616 28.5284C29.1662 28.7238 28.9013 28.8335 28.625 28.8335H26.5417C26.2654 28.8335 26.0005 28.7238 25.8051 28.5284C25.6098 28.3331 25.5 28.0681 25.5 27.7918ZM20.2917 28.8335C20.0154 28.8335 19.7505 28.7238 19.5551 28.5284C19.3598 28.3331 19.25 28.0681 19.25 27.7918V19.4585C19.25 19.1822 19.3598 18.9173 19.5551 18.7219C19.7505 18.5266 20.0154 18.4168 20.2917 18.4168H22.375C22.6513 18.4168 22.9162 18.5266 23.1116 18.7219C23.3069 18.9173 23.4167 19.1822 23.4167 19.4585V27.7918C23.4167 28.0681 23.3069 28.3331 23.1116 28.5284C22.9162 28.7238 22.6513 28.8335 22.375 28.8335H20.2917ZM14.0417 28.8335C13.7654 28.8335 13.5005 28.7238 13.3051 28.5284C13.1098 28.3331 13 28.0681 13 27.7918V23.6252C13 23.3489 13.1098 23.0839 13.3051 22.8886C13.5005 22.6932 13.7654 22.5835 14.0417 22.5835H16.125C16.4013 22.5835 16.6662 22.6932 16.8616 22.8886C17.0569 23.0839 17.1667 23.3489 17.1667 23.6252V27.7918C17.1667 28.0681 17.0569 28.3331 16.8616 28.5284C16.6662 28.7238 16.4013 28.8335 16.125 28.8335H14.0417Z" fill="#4D598C"/>
</svg>
