<svg width="41" height="41" viewBox="0 0 41 41" fill="none" xmlns="http://www.w3.org/2000/svg">
<path d="M23.8333 3.8335H10.5C9.61593 3.8335 8.76809 4.18469 8.14297 4.80981C7.51785 5.43493 7.16666 6.28277 7.16666 7.16683V33.8335C7.16666 34.7176 7.51785 35.5654 8.14297 36.1905C8.76809 36.8156 9.61593 37.1668 10.5 37.1668H30.5C31.384 37.1668 32.2319 36.8156 32.857 36.1905C33.4821 35.5654 33.8333 34.7176 33.8333 33.8335V13.8335L23.8333 3.8335ZM17.1633 25.1135H15.325V30.5702H13.7967V25.1135H11.9883V23.8335H17.1633V25.1135ZM21.705 30.5702L21.0967 29.3518C20.8467 28.8818 20.6867 28.5318 20.4983 28.1418H20.4767C20.3383 28.5302 20.1683 28.8802 19.9567 29.3518L19.3983 30.5702H17.6567L19.6083 27.1618L17.7267 23.8335H19.4767L20.0667 25.0635C20.2683 25.4718 20.4167 25.8018 20.5767 26.1818H20.5983C20.7583 25.7518 20.8883 25.4518 21.0583 25.0635L21.6267 23.8335H23.365L21.4667 27.1218L23.4633 30.5702H21.705ZM29.0117 25.1135H27.1717V30.5702H25.6433V25.1135H23.835V23.8335H29.01V25.1135H29.0117ZM23.8333 15.5002H22.1667V7.16683L30.5 15.5002H23.8333Z" fill="#4D598C"/>
</svg>
